<svg width="36" height="36" viewBox="0 0 36 36" fill="none" xmlns="http://www.w3.org/2000/svg">
<g id="uil:fire">
<path id="Vector" d="M12.702 12.5925L12.699 12.594L12.6945 12.597L12.702 12.5925ZM27.633 12.312C27.529 12.2109 27.4132 12.1228 27.288 12.0495C27.1113 11.9454 26.915 11.8787 26.7115 11.8535C26.5079 11.8283 26.3013 11.8451 26.1045 11.9028C25.9077 11.9606 25.7248 12.0582 25.5672 12.1894C25.4095 12.3207 25.2805 12.4829 25.188 12.666C24.6708 13.684 23.9583 14.5902 23.091 15.333C23.2238 14.5853 23.2911 13.8274 23.292 13.068C23.2955 10.7581 22.6865 8.48853 21.5271 6.49066C20.3677 4.49279 18.6993 2.83802 16.692 1.695C16.4709 1.56934 16.2214 1.50198 15.9671 1.49926C15.7127 1.49654 15.4619 1.55854 15.2381 1.67944C15.0143 1.80033 14.8249 1.97615 14.6877 2.19036C14.5506 2.40458 14.4702 2.65015 14.454 2.904C14.3698 4.32609 13.9979 5.7163 13.3608 6.99049C12.7237 8.26468 11.8347 9.39635 10.7475 10.317L10.4025 10.5975C9.26473 11.3626 8.2578 12.3062 7.42053 13.392C6.11894 15.0317 5.21731 16.9521 4.78715 19.0009C4.35699 21.0497 4.41013 23.1705 4.94237 25.1952C5.4746 27.2199 6.47127 29.0927 7.85335 30.6652C9.23542 32.2376 10.9649 33.4664 12.9045 34.254C13.1323 34.3467 13.3793 34.382 13.6238 34.3568C13.8684 34.3316 14.103 34.2466 14.3071 34.1094C14.5111 33.9722 14.6783 33.7869 14.7939 33.5699C14.9095 33.353 14.97 33.1109 14.97 32.865C14.97 32.706 14.9447 32.548 14.895 32.397C14.5602 31.1354 14.4636 29.8225 14.61 28.5255C16.0294 31.2026 18.3081 33.3244 21.0795 34.5495C21.4177 34.7002 21.7997 34.7205 22.152 34.6065C24.3412 33.8998 26.3134 32.645 27.8811 30.9615C29.4489 29.278 30.5601 27.2216 31.1094 24.9876C31.6586 22.7537 31.6275 20.4164 31.019 18.1979C30.4106 15.9793 29.245 13.9532 27.633 12.312ZM21.7755 31.5585C20.4677 30.8963 19.3141 29.966 18.3896 28.8284C17.4652 27.6907 16.7907 26.3711 16.41 24.9555C16.2938 24.4788 16.2037 23.996 16.14 23.5095C16.0973 23.1996 15.9589 22.9109 15.744 22.6836C15.5291 22.4563 15.2485 22.3019 14.9415 22.242C14.8471 22.2238 14.7512 22.2148 14.655 22.215C14.3915 22.2147 14.1325 22.2839 13.9042 22.4156C13.6759 22.5473 13.4863 22.7368 13.3545 22.965C12.1103 25.1119 11.4847 27.5614 11.547 30.042C10.4523 29.191 9.53729 28.1313 8.85515 26.9241C8.17301 25.7169 7.73727 24.3863 7.57319 23.0095C7.4091 21.6326 7.51994 20.2369 7.89928 18.9032C8.27862 17.5695 8.9189 16.3244 9.78303 15.24C10.4401 14.3886 11.2314 13.6499 12.126 13.053C12.1648 13.0273 12.2023 12.9997 12.2385 12.9705C12.2385 12.9705 12.6825 12.603 12.6975 12.5955C14.8352 10.7879 16.3558 8.35862 17.0475 5.646C18.6817 7.15705 19.7712 9.16538 20.1468 11.3591C20.5225 13.5529 20.1633 15.8093 19.125 17.778C18.9876 18.0408 18.9312 18.3384 18.9628 18.6332C18.9945 18.928 19.1128 19.2069 19.3029 19.4345C19.4929 19.6621 19.7462 19.8283 20.0306 19.912C20.3151 19.9958 20.618 19.9933 20.901 19.905C23.1985 19.1841 25.2201 17.777 26.694 15.873C27.5801 17.1813 28.1594 18.6728 28.3888 20.2362C28.6183 21.7996 28.4919 23.3946 28.0191 24.9024C27.5463 26.4101 26.7393 27.7918 25.6583 28.9442C24.5772 30.0967 23.25 30.9903 21.7755 31.5585Z" fill="#C576EB"/>
</g>
</svg>
