<svg width="36" height="36" viewBox="0 0 36 36" fill="none" xmlns="http://www.w3.org/2000/svg">
<g id="bxs:offer">
<path id="Vector" d="M31.1234 18L32.7794 15.138C32.9785 14.7937 33.0326 14.3844 32.9299 14.0002C32.8273 13.6159 32.5762 13.2882 32.2319 13.089L29.3669 11.433V8.13303C29.3669 7.7352 29.2089 7.35367 28.9276 7.07237C28.6463 6.79106 28.2648 6.63303 27.8669 6.63303H24.5684L22.9139 3.76953C22.7151 3.42502 22.3876 3.17359 22.0034 3.07053C21.8131 3.01953 21.6146 3.00653 21.4193 3.03226C21.2239 3.058 21.0356 3.12197 20.8649 3.22053L17.9999 4.87653L15.1349 3.21903C14.7904 3.02012 14.381 2.96622 13.9968 3.06918C13.6125 3.17213 13.2849 3.42352 13.0859 3.76803L11.4299 6.63303H8.13145C7.73362 6.63303 7.35209 6.79106 7.07079 7.07237C6.78948 7.35367 6.63145 7.7352 6.63145 8.13303V11.4315L3.76645 13.0875C3.59579 13.1861 3.44624 13.3174 3.32635 13.4739C3.20647 13.6303 3.11859 13.8089 3.06774 13.9993C3.01689 14.1897 3.00407 14.3883 3.03002 14.5837C3.05597 14.7791 3.12016 14.9675 3.21895 15.138L4.87495 18L3.21895 20.862C3.02093 21.2067 2.96721 21.6157 3.06949 21.9998C3.17177 22.3839 3.42175 22.712 3.76495 22.9125L6.62995 24.5685V27.867C6.62995 28.2648 6.78798 28.6464 7.06929 28.9277C7.35059 29.209 7.73212 29.367 8.12995 29.367H11.4299L13.0859 32.232C13.2187 32.459 13.4084 32.6476 13.6361 32.7791C13.8639 32.9106 14.122 32.9805 14.3849 32.982C14.6459 32.982 14.9054 32.913 15.1364 32.7795L17.9984 31.1235L20.8634 32.7795C21.2078 32.9786 21.6171 33.0327 22.0013 32.93C22.3855 32.8273 22.7133 32.5763 22.9124 32.232L24.5669 29.367H27.8654C28.2633 29.367 28.6448 29.209 28.9261 28.9277C29.2074 28.6464 29.3654 28.2648 29.3654 27.867V24.5685L32.2304 22.9125C32.4011 22.8139 32.5507 22.6826 32.6705 22.5262C32.7904 22.3697 32.8783 22.1912 32.9292 22.0007C32.98 21.8103 32.9928 21.6117 32.9669 21.4163C32.9409 21.2209 32.8767 21.0326 32.7779 20.862L31.1234 18ZM14.2484 10.485C14.8454 10.4852 15.4178 10.7225 15.8397 11.1448C16.2617 11.567 16.4986 12.1396 16.4984 12.7365C16.4982 13.3335 16.2609 13.9059 15.8387 14.3278C15.4165 14.7498 14.8439 14.9867 14.2469 14.9865C13.65 14.9863 13.0776 14.749 12.6556 14.3268C12.2337 13.9045 11.9967 13.332 11.9969 12.735C11.9971 12.1381 12.2345 11.5657 12.6567 11.1437C13.0789 10.7218 13.6515 10.4848 14.2484 10.485ZM14.6984 24.885L12.2984 23.0865L21.2985 11.0865L23.6984 12.885L14.6984 24.885ZM21.7484 25.485C21.4529 25.4849 21.1602 25.4266 20.8872 25.3134C20.6141 25.2002 20.3661 25.0343 20.1571 24.8253C19.9482 24.6162 19.7825 24.368 19.6695 24.0949C19.5565 23.8218 19.4984 23.5291 19.4984 23.2335C19.4985 22.938 19.5569 22.6453 19.6701 22.3723C19.7833 22.0992 19.9491 21.8512 20.1582 21.6422C20.3673 21.4333 20.6155 21.2676 20.8886 21.1546C21.1617 21.0415 21.4544 20.9834 21.7499 20.9835C22.3469 20.9837 22.9193 21.221 23.3412 21.6433C23.7632 22.0655 24.0001 22.6381 23.9999 23.235C23.9998 23.832 23.7624 24.4044 23.3402 24.8263C22.9179 25.2483 22.3454 25.4852 21.7484 25.485Z" fill="#C576EB"/>
</g>
</svg>
