<svg width="24" height="24" viewBox="0 0 24 24" fill="none" xmlns="http://www.w3.org/2000/svg">
<g id="iconoir:laptop-dev-mode">
<g id="Group">
<path id="Vector" d="M3.19994 14.222V4C3.19994 3.46957 3.41065 2.96086 3.78572 2.58579C4.1608 2.21071 4.6695 2 5.19994 2H18.7999C19.3304 2 19.8391 2.21071 20.2142 2.58579C20.5892 2.96086 20.7999 3.46957 20.7999 4V14.222M3.19994 14.222H20.7999M3.19994 14.222L1.71994 19.456C1.63588 19.7534 1.62188 20.0662 1.67904 20.3699C1.73619 20.6736 1.86295 20.9599 2.04936 21.2064C2.23577 21.4529 2.47676 21.6528 2.75343 21.7905C3.03009 21.9282 3.3349 21.9999 3.64394 22H20.3559C20.665 21.9999 20.9698 21.9282 21.2464 21.7905C21.5231 21.6528 21.7641 21.4529 21.9505 21.2064C22.1369 20.9599 22.2637 20.6736 22.3208 20.3699C22.378 20.0662 22.364 19.7534 22.2799 19.456L20.7999 14.222" stroke="white" stroke-width="1.5"/>
<path id="Vector_2" d="M11 19H13M14 6L16 8L14 10M10 6L8 8L10 10" stroke="white" stroke-width="1.5" stroke-linecap="round" stroke-linejoin="round"/>
</g>
</g>
</svg>
